<?xml version='1.0' encoding='utf-8'?>
<!DOCTYPE svg PUBLIC '-//W3C//DTD SVG 1.1//EN' 'http://www.w3.org/Graphics/SVG/1.1/DTD/svg11.dtd'>
<svg version="1.1" xmlns="http://www.w3.org/2000/svg" viewBox="0 0 512 512" xmlns:xlink="http://www.w3.org/1999/xlink" enable-background="new 0 0 512 512" fill="#fff">
  <g>
    <path d="m256,11c-81,0-147,65.9-147,147v100.3c0,74.1 55.1,135.6 126.5,145.5v56.4h-43.4c-11.3,0-20.4,9.1-20.4,20.4 0,11.3 9.1,20.4 20.4,20.4h127.7c11.3,0 20.4-9.1 20.4-20.4 0-11.3-9.1-20.4-20.4-20.4h-43.4v-56.4c71.4-10 126.5-71.4 126.5-145.5v-100.3c0.1-81.1-65.9-147-146.9-147zm0,353.4c-42.7,0-79.6-25.3-96.4-61.8h45.1c11.3,0 20.4-9.1 20.4-20.4 0-11.3-9.1-20.4-20.4-20.4h-54.8c0-1.2-0.1-33.3-0.1-33.3h54.8c11.3,0 20.4-9.1 20.4-20.4 0-11.3-9.1-20.4-20.4-20.4h-54.8c0,0 0-32.1 0.1-33.3h54.8c11.3,0 20.4-9.1 20.4-20.4s-9.1-20.4-20.4-20.4h-45.1c16.8-36.4 53.7-61.8 96.4-61.8 42.7,0 79.6,25.3 96.4,61.8h-45.1c-11.3,0-20.4,9.1-20.4,20.4s9.1,20.4 20.4,20.4h54.8c0,1.2 0.1,33.3 0.1,33.3h-54.8c-11.3,0-20.4,9.1-20.4,20.4 0,11.3 9.1,20.4 20.4,20.4h54.8c0,0 0,32.1-0.1,33.3h-54.8c-11.3,0-20.4,9.1-20.4,20.4 0,11.3 9.1,20.4 20.4,20.4h45.1c-16.8,36.5-53.7,61.8-96.4,61.8z"/>
  </g>
</svg>
