<?xml version="1.0" encoding="iso-8859-1"?>
<!-- Generator: Adobe Illustrator 18.0.0, SVG Export Plug-In . SVG Version: 6.00 Build 0)  -->
<!DOCTYPE svg PUBLIC "-//W3C//DTD SVG 1.1//EN" "http://www.w3.org/Graphics/SVG/1.1/DTD/svg11.dtd">
<svg version="1.1" id="Capa_1" xmlns="http://www.w3.org/2000/svg" xmlns:xlink="http://www.w3.org/1999/xlink" x="0px" y="0px"
	 viewBox="0 0 447.181 447.181" style="enable-background:new 0 0 447.181 447.181;" xml:space="preserve">
<path d="M417.655,34.093H29.525C13.245,34.093,0,47.338,0,63.618v218.426c0,16.28,13.245,29.525,29.525,29.525H186.68v60.237h-48.74
	c-11.076,0-20.055,8.979-20.055,20.055c0,11.724,9.504,21.228,21.227,21.228h169.543c11.4,0,20.641-9.242,20.641-20.642
	c0-11.399-9.241-20.641-20.641-20.641H260.5v-60.237h157.155c16.281,0,29.526-13.245,29.526-29.525V63.618
	C447.181,47.338,433.936,34.093,417.655,34.093z M168.887,229.619c0,3.878-3.144,7.023-7.023,7.023h-30.433
	c-3.879,0-7.023-3.145-7.023-7.023V116.043c0-3.879,3.144-7.023,7.023-7.023h30.433c3.879,0,7.023,3.144,7.023,7.023V229.619z
	 M245.83,229.619c0,3.878-3.144,7.023-7.023,7.023h-30.433c-3.879,0-7.023-3.145-7.023-7.023v-78.283
	c0-3.878,3.144-7.023,7.023-7.023h30.433c3.879,0,7.023,3.145,7.023,7.023V229.619z M322.773,229.619
	c0,3.878-3.144,7.023-7.023,7.023h-30.433c-3.879,0-7.023-3.145-7.023-7.023V186.89c0-3.878,3.144-7.023,7.023-7.023h30.433
	c3.879,0,7.023,3.145,7.023,7.023V229.619z"/>
<g>
</g>
<g>
</g>
<g>
</g>
<g>
</g>
<g>
</g>
<g>
</g>
<g>
</g>
<g>
</g>
<g>
</g>
<g>
</g>
<g>
</g>
<g>
</g>
<g>
</g>
<g>
</g>
<g>
</g>
</svg>
